<?xml version="1.0" encoding="iso-8859-1"?>
<!-- Uploaded to: SVG Repo, www.svgrepo.com, Generator: SVG Repo Mixer Tools -->
<svg fill="#000000" height="800px" width="800px" version="1.1" id="Layer_1" xmlns="http://www.w3.org/2000/svg" xmlns:xlink="http://www.w3.org/1999/xlink" 
	 viewBox="0 0 512 512" xml:space="preserve">
<g>
	<g>
		<path d="M505.59,365.338c-0.806-0.625-1.665-1.145-2.549-1.604l-3.834-26.839c-2.959-20.706-20.819-36.245-41.604-36.245
			c-0.083,0-0.168,0-0.25,0c-29.232,0.192-72.762-2.591-116.807-16.422c1.067-3.137,0.103-6.691-2.577-8.835l-83.23-66.585
			L229.656,83.405c-0.749-3.748-4.039-6.444-7.861-6.444c-1.223,0-30.165,0.332-49.426,29.224c-0.417,0.625-0.727,1.29-0.948,1.972
			c-3.534-0.259-7.137-0.013-10.661,0.919c-18.329,4.851-76.337,24.644-76.337,24.644c-6.17,2.055-12.596,3.099-19.099,3.099H42.221
			c-18.566,0-33.67,15.105-33.67,33.67v173.692c-1.306,0.734-2.529,1.639-3.626,2.726C1.75,350.052,0,354.236,0,358.685v59.786
			c0,9.136,7.432,16.568,16.568,16.568h136.818c9.136,0,16.568-7.432,16.568-16.568v-3.992c9.119,1.356,18.173,2.745,27.003,4.1
			c55.158,8.465,107.258,16.46,170.207,16.46c68.71,0,115.703-10.877,132.719-15.553c7.134-1.96,12.116-8.524,12.116-15.961v-25.069
			C512,373.282,509.663,368.501,505.59,365.338z M457.448,316.684c0.052,0,0.103,0,0.155,0c12.849,0,23.896,9.638,25.73,22.479
			l3.48,24.363c-21.752,5.214-62.933,12.724-119.649,12.724c-61.653,0-113.086-7.899-167.539-16.262
			c-5.539-0.851-11.098-1.704-16.686-2.551c16.375-15.023,52.669-38.609,111.649-27.708c10.166,1.879,20.593-2.864,25.954-11.798
			l11.715-19.526C379.465,313.822,426.302,316.866,457.448,316.684z M215.406,93.907l19.866,99.33l-23.458-18.766l-10.224-40.897
			c-2.113-8.454-7.301-15.611-14.634-20.258C196.405,100.235,208.238,95.56,215.406,93.907z M24.585,170.489
			c0-9.725,7.912-17.637,17.637-17.637h23.103c8.229,0,16.362-1.319,24.168-3.922l57.813-19.271l7.138,35.694
			c1.545,7.724-0.433,15.648-5.427,21.739c-4.994,6.092-12.376,9.585-20.252,9.585h-60.89c-17.064,0-32.457,7.251-43.29,18.823
			V170.489z M24.585,256c0-23.871,19.42-43.29,43.29-43.29h60.891c12.7,0,24.601-5.633,32.651-15.454s11.24-22.595,8.75-35.048
			l-7.42-37.103l1.902-0.476c4.568-1.142,9.312-0.436,13.351,1.987c4.039,2.424,6.893,6.275,8.037,10.845l10.88,43.522
			c0.425,1.703,1.398,3.219,2.77,4.316l31.011,24.809l-14.569,14.569c-3.131,3.131-3.131,8.207,0,11.337
			c1.565,1.565,3.617,2.348,5.668,2.348s4.104-0.782,5.668-2.348l15.829-15.829l9.573,7.659l-13.936,13.936
			c-3.131,3.131-3.131,8.207,0,11.337c1.565,1.565,3.617,2.348,5.668,2.348c2.051,0,4.104-0.782,5.668-2.348l15.195-15.195
			l9.573,7.659l-13.302,13.302c-3.131,3.131-3.131,8.207,0,11.337c1.565,1.565,3.617,2.348,5.668,2.348
			c2.051,0,4.103-0.782,5.668-2.348l14.563-14.563l9.573,7.659l-12.67,12.67c-3.131,3.131-3.131,8.207,0,11.337
			c1.565,1.565,3.617,2.348,5.668,2.348s4.103-0.782,5.668-2.348l13.929-13.929l12.679,10.144l-15.687,26.145
			c-1.938,3.229-5.669,4.949-9.292,4.281c-20.076-3.711-88.985-11.723-134.091,40.568c-42.169-6.119-86.812-11.387-138.826-12.33
			V256z M495.967,403.526c0,0.245-0.134,0.446-0.332,0.5c-16.388,4.504-61.711,14.981-128.469,14.981
			c-61.726,0-113.239-7.906-167.776-16.274c-11.816-1.814-24.033-3.689-36.301-5.467c-0.384-0.056-0.767-0.083-1.15-0.083
			c-1.914,0-3.78,0.686-5.246,1.955c-1.759,1.522-2.771,3.735-2.771,6.062v13.273c0,0.295-0.239,0.534-0.534,0.534H16.569
			c-0.295,0-0.534-0.239-0.534-0.534v-59.786c0-0.142,0.059-0.273,0.176-0.389c0.12-0.12,0.269-0.172,0.405-0.177
			c69.551,0.665,125.994,9.333,180.577,17.716c55.075,8.459,107.096,16.449,169.972,16.449c62.73,0,107.25-8.996,128.204-14.357
			c0.082-0.021,0.218-0.056,0.388,0.076c0.209,0.162,0.209,0.374,0.209,0.454V403.526z"/>
	</g>
</g>
</svg>