<?xml version="1.0" encoding="iso-8859-1"?>
<!-- Uploaded to: SVG Repo, www.svgrepo.com, Generator: SVG Repo Mixer Tools -->
<svg fill="#000000" height="800px" width="800px" version="1.1" id="Layer_1" xmlns="http://www.w3.org/2000/svg" xmlns:xlink="http://www.w3.org/1999/xlink" 
	 viewBox="0 0 512 512" xml:space="preserve">
<g>
	<g>
		<path d="M511.922,456.027L480.03,129.135c-0.72-7.374-4.52-13.709-10.054-17.812V54.358c0-9.167-7.458-16.625-16.625-16.625
			H58.649c-9.167,0-16.625,7.458-16.625,16.625v56.964c-5.536,4.103-9.335,10.438-10.054,17.812L0.078,456.027
			c-0.455,4.658,1.088,9.317,4.232,12.784c3.145,3.466,7.632,5.455,12.313,5.455h190.575c12.323,0,22.772-8.816,24.846-20.963
			l23.427-137.216c0.043-0.251,0.101-0.348,0.098-0.348c0.163-0.13,0.701-0.129,0.851-0.012c0,0.001,0.063,0.094,0.108,0.359
			l23.427,137.215c2.073,12.147,12.522,20.964,24.846,20.964h190.575c4.681,0,9.168-1.989,12.313-5.455
			C510.834,465.346,512.376,460.685,511.922,456.027z M464.017,130.699l9.853,100.984c-7.98-4.243-20.759-11.999-33.789-23.871
			c-25.822-23.531-41.365-52.21-46.304-85.345h61.167C459.659,122.467,463.559,126.007,464.017,130.699z M58.112,54.358
			c0-0.295,0.24-0.536,0.536-0.536h394.703c0.295,0,0.536,0.241,0.536,0.536v52.019H306.947V80.1c0-4.444-3.601-8.044-8.044-8.044
			c-4.444,0-8.044,3.601-8.044,8.044v26.278h-69.716V80.1c0-4.444-3.602-8.044-8.044-8.044s-8.044,3.601-8.044,8.044v26.278H58.112
			V54.358z M308.019,251.71c0,5.027-4.09,9.117-9.117,9.117s-9.117-4.09-9.117-9.117c0-5.027,4.09-9.117,9.117-9.117
			S308.019,246.683,308.019,251.71z M222.214,251.71c0,5.027-4.09,9.117-9.117,9.117s-9.117-4.09-9.117-9.117
			c0-5.027,4.09-9.117,9.117-9.117S222.214,246.683,222.214,251.71z M47.982,130.697c0.458-4.692,4.359-8.231,9.074-8.231h61.166
			c-4.938,33.136-20.481,61.814-46.304,85.345c-13.029,11.873-25.809,19.629-33.789,23.872L47.982,130.697z M16.624,458.178
			c-0.064,0-0.237,0-0.397-0.176c-0.16-0.176-0.143-0.346-0.136-0.412l20.21-207.158c1.812-0.757,9.149-3.958,19.099-10.105
			l-21.211,217.85H16.624z M304.801,458.178c-4.458,0-8.237-3.189-8.987-7.583l-23.428-137.216
			c-1.39-8.141-8.128-13.826-16.387-13.826s-14.998,5.686-16.388,13.826l-23.427,137.216c-0.75,4.394-4.529,7.583-8.987,7.583
			H50.353L72.748,228.18c3.12-2.459,6.313-5.133,9.532-8.044c35.909-32.489,48.377-69.839,52.185-97.67h70.589v105.362
			c-9.964,3.366-17.161,12.796-17.161,23.882c0,13.898,11.307,25.205,25.205,25.205s25.205-11.307,25.205-25.205
			c0-11.085-7.197-20.515-17.161-23.882V122.466h69.716v105.362c-9.964,3.366-17.161,12.796-17.161,23.882
			c0,13.898,11.307,25.205,25.205,25.205s25.205-11.307,25.205-25.205c0-11.085-7.197-20.515-17.161-23.882V122.466h70.594
			c6.413,47.277,31.613,79.06,52.18,97.67c3.219,2.912,6.412,5.585,9.532,8.044l22.395,229.998H304.801z M495.773,458.002
			c-0.159,0.176-0.332,0.176-0.397,0.176h-17.564L456.6,240.327c9.948,6.146,17.284,9.347,19.099,10.105l20.21,207.159
			C495.916,457.655,495.932,457.826,495.773,458.002z"/>
	</g>
</g>
</svg>