<?xml version="1.0" encoding="iso-8859-1"?>
<!-- Uploaded to: SVG Repo, www.svgrepo.com, Generator: SVG Repo Mixer Tools -->
<svg height="800px" width="800px" version="1.1" id="Layer_1" xmlns="http://www.w3.org/2000/svg" xmlns:xlink="http://www.w3.org/1999/xlink" 
	 viewBox="0 0 469.227 469.227" xml:space="preserve">
<g>
	<g>
		<path style="fill:#010101;" d="M401.306,431.573c-2.56-26.773-8.32-42.773-13.44-56.853c-5.547-15.36-10.347-28.693-10.453-54.187
			c0.747-5.44,6.72-46.933,22.4-73.28c26.24-43.947,22.72-64.96,18.667-89.173l-0.747-4.693
			c-3.52-22.187-21.867-65.067-49.707-75.84V0h-21.333v76.053c-11.307,3.84-17.28,14.933-22.4,24.427
			c-6.933,12.907-14.72,27.52-34.987,35.84c-49.92,20.587-114.133,10.133-137.387-22.293c-3.307-4.587-6.08-8.96-8.64-12.8
			c-6.4-9.707-12.16-18.453-20.587-23.04V0h-21.333v76.053c-25.387,7.253-46.4,47.147-51.2,77.227
			c-4.693,29.44-3.307,55.467,17.707,93.547c22.613,40.96,22.613,49.707,22.613,72.96c0,15.36-4.053,28.373-9.173,44.8
			c-5.547,17.813-11.947,38.08-14.72,67.733c-1.28,13.013-2.347,24.32,4.8,31.467c2.667,2.667,6.187,4.267,9.813,4.587
			c1.28,0.533,2.667,0.853,4.053,0.853h297.387c1.493,0,2.88-0.32,4.267-0.853c3.947-0.32,7.68-2.027,10.453-4.907
			c6.613-6.827,5.547-16.853,4.373-27.413L401.306,431.573z M379.332,448H88.559c-0.533-0.213-1.067-0.427-1.6-0.533
			c0-4.693,0.32-9.28,0.853-13.973c2.56-26.667,8.533-45.76,13.76-62.72c5.227-16.853,10.133-32.533,10.133-51.2
			c0-25.707,0-37.44-25.28-83.307c-20.053-36.373-18.667-58.56-15.36-80c4.8-30.4,26.027-60.48,38.08-60.48h0.32
			c0,0,7.68,4.587,15.68,16.853c2.667,4.053,5.653,8.64,9.173,13.547c29.013,40.533,103.68,54.08,162.88,29.653
			c27.307-11.307,37.867-31.04,45.653-45.547c6.4-11.947,11.733-13.44,11.733-13.44h0.32c0.427,0,0.853,0,1.28,0.107
			c17.707,2.133,36.587,38.08,40.107,60.373l0.747,4.8c3.627,21.653,6.293,37.333-15.893,74.56
			c-19.093,32.107-25.067,80-25.28,82.027c0,0.427-0.107,0.853-0.107,1.28c0,29.547,5.653,45.227,11.733,61.867
			c4.907,13.547,9.92,27.52,12.267,51.52l0.533,4.907c0.32,2.667,0.64,6.293,0.747,8.853
			C380.612,447.467,379.972,447.68,379.332,448z"/>
	</g>
</g>
</svg>